<svg width="50" height="51" viewBox="0 0 50 51" fill="none" xmlns="http://www.w3.org/2000/svg">
<g clip-path="url(#clip0_402_904)">
<path d="M25 50.6364C38.8071 50.6364 50 39.4435 50 25.6364C50 11.8292 38.8071 0.636353 25 0.636353C11.1929 0.636353 0 11.8292 0 25.6364C0 39.4435 11.1929 50.6364 25 50.6364Z" fill="#F0F0F0"/>
<path d="M25 19.1146H49.1388C48.5119 16.789 47.5592 14.5975 46.3307 12.5928H25V19.1146Z" fill="#338AF3"/>
<path d="M9.4378 45.2016H40.5621C42.8437 43.3844 44.8003 41.1772 46.3306 38.6798H3.66934C5.19971 41.1771 7.15635 43.3844 9.4378 45.2016V45.2016Z" fill="#338AF3"/>
<path d="M25 0.636353V6.07112H40.5622C36.2917 2.66995 30.8837 0.636353 25 0.636353V0.636353Z" fill="#338AF3"/>
<path d="M25 19.1146H49.1388C48.5119 16.789 47.5592 14.5975 46.3307 12.5928H25V19.1146Z" fill="#338AF3"/>
<path d="M0 25.6364C0 27.8929 0.300781 30.0786 0.86123 32.1581H49.1389C49.6992 30.0786 50 27.8929 50 25.6364H0Z" fill="#338AF3"/>
<path d="M21.7392 15.2673L18.6858 16.7035L20.3117 19.6606L16.9963 19.0264L16.5762 22.3755L14.267 19.9122L11.9576 22.3755L11.5376 19.0264L8.22217 19.6604L9.84796 16.7034L6.79483 15.2673L9.84805 13.8313L8.22217 10.8742L11.5375 11.5084L11.9577 8.1593L14.267 10.6226L16.5763 8.1593L16.9963 11.5084L20.3118 10.8742L18.6859 13.8314L21.7392 15.2673Z" fill="#FFDA44"/>
</g>
<defs>
<clipPath id="clip0_402_904">
<rect width="50" height="50" fill="white" transform="translate(0 0.636353)"/>
</clipPath>
</defs>
</svg>
